<?xml version="1.0" encoding="utf-8"?>
<svg xmlns="http://www.w3.org/2000/svg"
xmlns:xlink="http://www.w3.org/1999/svg">
    <symbol id="skype" viewBox="0 0 24 24">
        <path d="M18,24c-1.375,0-2.641-0.469-3.656-1.25C13.594,22.906,12.797,23,12,23C5.922,23,1,18.078,1,12
		c0-0.797,0.094-1.594,0.25-2.344C0.469,8.641,0,7.375,0,6c0-3.313,2.688-6,6-6c1.375,0,2.641,0.469,3.656,1.25
		C10.406,1.094,11.203,1,12,1c6.078,0,11,4.922,11,11c0,0.797-0.094,1.594-0.25,2.344C23.531,15.359,24,16.625,24,18
		C24,21.313,21.313,24,18,24z M13.469,10.453l-1.625-0.375c-1.188-0.281-2.078-0.484-2.078-1.391c0-0.828,0.875-1.203,2.25-1.203
		c2.453,0,2.5,1.797,4.016,1.797c1.016,0,1.625-0.797,1.625-1.703c0-1.797-2.984-2.969-5.938-2.969
		c-2.703,0-5.844,1.172-5.844,4.344c0,2.625,1.75,3.563,4.031,4.109l2.281,0.563c1.391,0.344,2.25,0.5,2.25,1.5
		c0,0.797-0.891,1.406-2.266,1.406c-2.891,0-3.047-2.406-4.719-2.406c-1.094,0-1.578,0.781-1.578,1.641
		c0,1.922,2.938,3.484,6.453,3.484c2.938,0,6-1.469,6-4.641C18.328,11.891,15.688,10.953,13.469,10.453z"/>
    </symbol>
    <symbol id="mail" viewBox="0 0 22.012 17.295">
        <path d="M19.911,5.331c-1.916,1.327-3.845,2.653-5.748,3.992c-0.799,0.553-2.15,1.683-3.145,1.683h-0.013h-0.012
		c-0.995,0-2.346-1.13-3.145-1.683C5.945,7.984,4.017,6.658,2.113,5.331C1.241,4.741,0,3.354,0,2.235C0,1.032,0.651,0,1.965,0
		h18.082c1.068,0,1.965,0.884,1.965,1.965C22.012,3.341,20.992,4.582,19.911,5.331z M22.012,15.33c0,1.08-0.885,1.965-1.965,1.965
		H1.965C0.884,17.295,0,16.41,0,15.33V5.577c0.369,0.405,0.786,0.762,1.241,1.069c2.039,1.388,4.103,2.776,6.104,4.237
		c1.032,0.762,2.31,1.695,3.648,1.695h0.012h0.013c1.339,0,2.616-0.934,3.647-1.695c2.003-1.449,4.066-2.85,6.117-4.237
		c0.442-0.307,0.86-0.664,1.229-1.069V15.33z"/>
    </symbol>
    <symbol id="phone" viewBox="0 0 18.864 18.863">
        <path d="M18.448,16.76c-0.281,0.656-1.031,1.086-1.634,1.42c-0.791,0.43-1.595,0.684-2.492,0.684
		c-1.246,0-2.371-0.51-3.51-0.924c-0.817-0.295-1.608-0.657-2.345-1.112c-2.278-1.407-5.024-4.153-6.431-6.431
		C1.581,9.659,1.219,8.869,0.924,8.052C0.509,6.913,0,5.788,0,4.542C0,3.644,0.254,2.84,0.683,2.05
		c0.335-0.603,0.764-1.353,1.42-1.634C2.545,0.214,3.483,0,3.965,0C4.06,0,4.153,0,4.247,0.04c0.281,0.094,0.576,0.75,0.71,1.019
		c0.429,0.764,0.844,1.541,1.286,2.291c0.214,0.349,0.616,0.777,0.616,1.192c0,0.817-2.425,2.01-2.425,2.733
		c0,0.361,0.335,0.831,0.522,1.152c1.353,2.438,3.041,4.126,5.479,5.479c0.322,0.188,0.791,0.522,1.152,0.522
		c0.724,0,1.916-2.425,2.733-2.425c0.415,0,0.844,0.402,1.192,0.616c0.75,0.442,1.527,0.857,2.291,1.286
		c0.268,0.134,0.924,0.429,1.018,0.71c0.041,0.094,0.041,0.188,0.041,0.281C18.864,15.38,18.649,16.318,18.448,16.76z"/>
    </symbol>
    <symbol id="marker" viewBox="0 0 15.151 21.654">
        <path d="M11.004,7.835c0-1.883-1.538-3.414-3.43-3.414c-1.889,0-3.431,1.531-3.431,3.414
		c0,1.884,1.542,3.419,3.431,3.419C9.466,11.254,11.004,9.719,11.004,7.835z"/>
	    <path d="M7.574,21.654l1.388-1.817c1.455-1.925,6.189-8.469,6.189-12.049C15.151,3.132,12.106,0,7.574,0
		C3.045,0,0,3.132,0,7.788c0,3.854,5.56,11.223,6.192,12.049L7.574,21.654z M2.792,7.835c0-2.628,2.146-4.77,4.782-4.77
		c2.64,0,4.785,2.142,4.785,4.77c0,2.63-2.146,4.771-4.785,4.771C4.938,12.605,2.792,10.465,2.792,7.835z"/>
    </symbol>
</svg>